# xmcd CD database file
#
# Track frame offsets:
#	150
#	44878
#	75699
#	104945
#	140861
#	171612
#	200919
#	241071
#
# Disc length: 3677 seconds
#
# Revision: 0
# Processed by: cddbd v1.5.2PL0 Copyright (c) Steve Scherf et al.
# Submitted via: CDex 1.70beta2
#
DISCID=850e5b08
DTITLE=Wayne Escoffery - Times Change
DYEAR=2001
DGENRE=Jazz
TTITLE0=Come Back Lucky
TTITLE1=Beatrice
TTITLE2=After You've Gone
TTITLE3=That's All
TTITLE4=Times Change
TTITLE5=Dawn
TTITLE6=Triste
TTITLE7=Water Pistol
EXTD=YEAR: 2001
EXTT0=
EXTT1=
EXTT2=
EXTT3=
EXTT4=
EXTT5=
EXTT6=
EXTT7=
PLAYORDER=
